<svg width="144" height="37" viewBox="0 0 144 37" fill="none" xmlns="http://www.w3.org/2000/svg">
<path d="M143.338 6.444L130.522 36.252H122.854L127.678 25.776L119.398 6.444H127.246L131.494 17.892L135.598 6.444H143.338Z" fill="#1F1F1F"/>
<path d="M119.736 0V26.64H112.68V0H119.736Z" fill="#1F1F1F"/>
<path d="M103.444 6.264C105.748 6.264 107.572 7.044 108.916 8.604C110.284 10.14 110.968 12.228 110.968 14.868V26.64H103.912V15.804C103.912 14.652 103.612 13.752 103.012 13.104C102.412 12.432 101.608 12.096 100.6 12.096C99.5443 12.096 98.7163 12.432 98.1163 13.104C97.5163 13.752 97.2163 14.652 97.2163 15.804V26.64H90.1603V0H97.2163V9.324C97.8403 8.412 98.6803 7.68 99.7363 7.128C100.816 6.552 102.052 6.264 103.444 6.264Z" fill="#1F1F1F"/>
<path d="M69.3011 16.524C69.3011 14.436 69.7331 12.612 70.5971 11.052C71.4611 9.49202 72.6611 8.29202 74.1971 7.45202C75.7571 6.61202 77.5331 6.19202 79.5251 6.19202C82.0931 6.19202 84.2531 6.90002 86.0051 8.31602C87.7571 9.70802 88.8851 11.664 89.3891 14.184H81.9011C81.4691 12.864 80.6291 12.204 79.3811 12.204C78.4931 12.204 77.7851 12.576 77.2571 13.32C76.7531 14.04 76.5011 15.108 76.5011 16.524C76.5011 17.94 76.7531 19.02 77.2571 19.764C77.7851 20.508 78.4931 20.88 79.3811 20.88C80.6531 20.88 81.4931 20.22 81.9011 18.9H89.3891C88.8851 21.396 87.7571 23.352 86.0051 24.768C84.2531 26.184 82.0931 26.892 79.5251 26.892C77.5331 26.892 75.7571 26.472 74.1971 25.632C72.6611 24.792 71.4611 23.592 70.5971 22.032C69.7331 20.472 69.3011 18.636 69.3011 16.524Z" fill="#1F1F1F"/>
<path d="M69.3768 20.628V26.64H66.3168C61.1568 26.64 58.5768 24.084 58.5768 18.972V12.312H56.0928V6.444H58.5768V1.548H65.6688V6.444H69.3408V12.312H65.6688V19.08C65.6688 19.632 65.7888 20.028 66.0288 20.268C66.2928 20.508 66.7248 20.628 67.3248 20.628H69.3768Z" fill="#1F1F1F"/>
<path d="M34 16.524C34 14.436 34.372 12.612 35.116 11.052C35.884 9.49202 36.916 8.29202 38.212 7.45202C39.532 6.61202 40.996 6.19202 42.604 6.19202C43.996 6.19202 45.196 6.46802 46.204 7.02002C47.212 7.57202 47.992 8.31602 48.544 9.25202V6.44402H55.6V26.64H48.544V23.832C47.992 24.768 47.2 25.512 46.168 26.064C45.16 26.616 43.972 26.892 42.604 26.892C40.996 26.892 39.532 26.472 38.212 25.632C36.916 24.792 35.884 23.592 35.116 22.032C34.372 20.448 34 18.612 34 16.524Z" fill="#1F1F1F"/>
<path d="M36.792 1.26001L30.564 26.64H21.888L18.396 11.088L14.832 26.64H6.156L0 1.26001H7.632L10.584 18.612L14.58 1.26001H22.32L26.208 18.468L29.16 1.26001H36.792Z" fill="#1F1F1F"/>
<path d="M49.0538 15.774C49.7205 16.1589 49.7205 17.1211 49.0538 17.506L41.5538 21.8362C40.8872 22.2211 40.0538 21.7399 40.0538 20.9701L40.0538 12.3099C40.0538 11.5401 40.8872 11.059 41.5538 11.4439L49.0538 15.774Z" fill="url(#paint0_linear_1_57)"/>
<defs>
<linearGradient id="paint0_linear_1_57" x1="40.5" y1="13" x2="49.5" y2="17" gradientUnits="userSpaceOnUse">
<stop stop-color="#3B82F6"/>
<stop offset="1" stop-color="#1E40AF"/>
</linearGradient>
</defs>
</svg>
